<mxfile host="app.diagrams.net" modified="2021-04-07T06:31:44.670Z" agent="5.0 (Windows NT 10.0; Win64; x64) AppleWebKit/537.36 (KHTML, like Gecko) Chrome/89.0.4389.90 Safari/537.36" etag="c93jF2qgTSw1iilLy17P" version="14.5.8" type="github">
  <diagram id="LcD85A9xeqxhDVyqJocB" name="Page-1">
    <mxGraphModel dx="782" dy="446" grid="1" gridSize="10" guides="1" tooltips="1" connect="1" arrows="1" fold="1" page="1" pageScale="1" pageWidth="827" pageHeight="1169" math="0" shadow="0">
      <root>
        <mxCell id="0" />
        <mxCell id="1" parent="0" />
        <mxCell id="YmLt_zcPKXC9g_IMXgsD-1" value="&#xa;&#xa;&lt;span style=&quot;color: rgb(51, 51, 51); font-family: arial, &amp;quot;microsoft yahei&amp;quot;, &amp;quot;\\5fae软雅黑&amp;quot;, &amp;quot;\\5b8b体&amp;quot;, &amp;quot;malgun gothic&amp;quot;, meiryo, sans-serif; font-size: 14px; font-style: normal; font-variant: normal; font-weight: normal; letter-spacing: normal; line-height: 14px; text-align: left; text-indent: 0px; text-transform: none; word-spacing: 0px; background-color: rgb(255, 255, 255); display: inline; float: none;&quot;&gt;generator&lt;/span&gt;&#xa;&#xa;" style="rounded=0;whiteSpace=wrap;html=1;" vertex="1" parent="1">
          <mxGeometry x="120" y="330" width="120" height="60" as="geometry" />
        </mxCell>
        <mxCell id="YmLt_zcPKXC9g_IMXgsD-2" value="" style="rounded=0;whiteSpace=wrap;html=1;" vertex="1" parent="1">
          <mxGeometry x="340" y="280" width="120" height="80" as="geometry" />
        </mxCell>
        <mxCell id="YmLt_zcPKXC9g_IMXgsD-3" value="noise" style="rounded=0;whiteSpace=wrap;html=1;" vertex="1" parent="1">
          <mxGeometry x="120" y="440" width="120" height="60" as="geometry" />
        </mxCell>
        <mxCell id="YmLt_zcPKXC9g_IMXgsD-4" value="&lt;span style=&quot;color: rgb(51 , 51 , 51) ; font-family: &amp;#34;arial&amp;#34; , &amp;#34;microsoft yahei&amp;#34; , &amp;#34;\\5fae软雅黑&amp;#34; , &amp;#34;\\5b8b体&amp;#34; , &amp;#34;malgun gothic&amp;#34; , &amp;#34;meiryo&amp;#34; , sans-serif ; font-size: 14px ; line-height: 14px ; text-align: left ; background-color: rgb(255 , 255 , 255)&quot;&gt;Discriminator&lt;/span&gt;" style="rounded=0;whiteSpace=wrap;html=1;" vertex="1" parent="1">
          <mxGeometry x="120" y="220" width="120" height="60" as="geometry" />
        </mxCell>
      </root>
    </mxGraphModel>
  </diagram>
</mxfile>
